<?xml version="1.0" standalone="no"?>
<!DOCTYPE svg PUBLIC "-//W3C//DTD SVG 20010904//EN"
 "http://www.w3.org/TR/2001/REC-SVG-20010904/DTD/svg10.dtd">
<svg version="1.0" xmlns="http://www.w3.org/2000/svg"
 width="832.000000pt" height="832.000000pt" viewBox="0 0 832.000000 832.000000"
 preserveAspectRatio="xMidYMid meet">
<metadata>
Created by potrace 1.14, written by Peter Selinger 2001-2017
</metadata>
<g transform="translate(0.000000,832.000000) scale(0.100000,-0.100000)"
fill="#000000" stroke="none">
<path d="M4581 7503 c-18 -9 -43 -33 -56 -52 -19 -30 -67 -174 -80 -244 -2 -9
-6 -21 -9 -25 -3 -5 -7 -19 -10 -33 -3 -13 -23 -87 -46 -164 -23 -77 -48 -165
-57 -195 -8 -30 -31 -109 -50 -175 -158 -544 -220 -763 -227 -795 -3 -11 -7
-24 -10 -28 -3 -5 -7 -19 -10 -33 -3 -13 -35 -125 -71 -249 -36 -124 -67 -232
-69 -240 -3 -8 -20 -71 -40 -140 -20 -69 -38 -132 -40 -140 -2 -8 -12 -42 -22
-75 -10 -33 -19 -64 -20 -70 -1 -5 -17 -59 -34 -120 -18 -60 -33 -114 -35
-120 -1 -5 -4 -17 -7 -25 -7 -18 -29 -98 -29 -105 0 -2 -5 -19 -10 -37 -15
-47 -89 -300 -94 -318 -2 -8 -14 -49 -25 -90 -12 -41 -23 -82 -26 -90 -2 -8
-15 -53 -29 -100 -14 -47 -27 -94 -29 -105 -2 -11 -15 -56 -29 -100 -14 -44
-48 -163 -77 -265 -28 -102 -55 -196 -60 -210 -5 -14 -15 -50 -24 -80 -8 -30
-25 -86 -36 -125 -12 -38 -23 -78 -26 -87 -2 -10 -6 -26 -8 -35 -3 -10 -17
-58 -31 -108 -15 -49 -28 -97 -30 -105 -2 -8 -4 -15 -5 -15 -1 0 -3 -9 -5 -19
-2 -10 -10 -40 -18 -65 -9 -25 -21 -66 -28 -91 -16 -57 -13 -48 -28 -100 -6
-25 -19 -67 -27 -95 -9 -27 -18 -58 -20 -68 -2 -9 -6 -26 -8 -36 -3 -11 -10
-29 -16 -40 -6 -12 -9 -21 -6 -21 2 0 -3 -21 -11 -47 -27 -88 -153 -528 -158
-553 -3 -14 -10 -36 -15 -50 -35 -98 -60 -210 -55 -250 7 -51 45 -107 83 -121
24 -9 241 -74 282 -85 8 -2 69 -20 135 -40 66 -19 174 -51 240 -70 66 -20 135
-40 153 -45 35 -11 84 -8 117 6 42 18 72 61 94 135 42 140 196 677 207 720 2
8 12 44 23 80 23 78 121 419 126 440 2 8 32 110 65 225 34 116 63 215 64 220
1 6 10 35 19 65 9 30 16 58 17 62 0 4 7 26 15 48 8 22 12 40 10 40 -2 0 3 16
11 35 8 19 12 35 9 35 -3 0 -1 8 4 18 6 11 12 30 15 43 3 13 44 157 91 319 47
162 92 318 100 347 8 28 30 104 49 167 19 64 32 116 29 116 -3 0 -1 6 4 13 6
6 14 26 18 42 4 17 9 37 11 45 2 8 24 87 50 175 25 88 47 167 49 175 2 8 4 16
5 18 2 1 4 7 5 12 1 6 3 11 5 13 1 1 3 9 5 17 1 8 10 40 19 71 9 31 18 65 21
75 2 11 15 57 29 104 30 96 126 427 131 450 2 8 31 110 64 225 34 116 64 218
66 228 2 10 15 55 29 100 13 45 32 109 41 142 9 33 21 76 26 95 5 19 12 46 15
59 3 14 8 29 12 35 3 6 7 16 8 21 3 14 29 107 53 188 11 37 20 68 20 70 0 1 2
9 5 17 6 16 45 154 51 180 2 8 4 15 5 15 1 0 3 8 5 17 2 10 13 50 25 90 28 96
48 164 61 213 6 22 15 51 20 65 4 14 20 68 34 121 28 105 27 158 -3 199 -34
45 -65 58 -282 119 -36 11 -112 33 -170 50 -121 37 -112 34 -210 61 -41 11
-82 23 -90 27 -35 15 -151 42 -180 42 -14 0 -40 -7 -59 -16z"/>
<path d="M1967 6076 c-16 -7 -87 -68 -160 -137 -72 -68 -142 -135 -157 -149
-15 -14 -93 -88 -174 -165 -82 -77 -167 -158 -191 -180 -105 -99 -352 -334
-390 -370 -56 -53 -296 -280 -414 -391 -52 -49 -113 -107 -136 -129 -23 -22
-103 -98 -179 -170 -76 -71 -144 -141 -151 -155 -17 -34 -16 -109 3 -142 9
-15 72 -80 141 -145 245 -232 457 -433 530 -503 32 -30 116 -110 187 -177 71
-66 152 -143 180 -170 28 -26 115 -109 194 -183 124 -117 218 -206 396 -375
315 -299 322 -305 386 -305 64 0 81 15 302 254 15 17 76 82 135 145 58 63 120
129 136 146 17 18 49 53 71 77 53 56 74 98 74 143 0 60 -26 98 -127 186 -52
46 -107 95 -123 109 -23 22 -101 91 -201 180 -15 14 -54 48 -85 75 -31 28 -68
60 -81 72 -76 68 -165 148 -185 165 -47 40 -141 124 -178 158 -21 19 -62 55
-91 80 -29 25 -66 59 -83 75 -17 17 -41 38 -53 46 l-23 16 43 39 c23 21 80 73
127 114 47 41 90 80 96 85 6 6 41 37 79 70 37 33 80 71 95 85 15 14 55 50 90
80 35 30 71 62 80 70 44 39 154 136 164 146 6 5 38 34 71 63 33 30 93 84 134
120 41 36 95 84 120 106 112 97 131 126 131 196 0 54 -12 72 -150 219 -14 15
-70 75 -125 135 -55 59 -119 128 -142 153 -24 24 -43 48 -43 54 0 5 -4 6 -10
3 -5 -3 -10 -2 -10 2 0 15 -142 162 -169 176 -35 17 -100 19 -134 3z"/>
<path d="M6225 6076 c-25 -11 -92 -79 -269 -270 -56 -61 -242 -261 -296 -319
-67 -71 -90 -111 -90 -156 0 -47 34 -114 73 -144 18 -14 46 -38 62 -53 17 -16
66 -60 110 -99 44 -38 85 -74 91 -80 6 -5 41 -37 79 -70 37 -33 77 -69 89 -80
11 -11 59 -54 106 -95 47 -41 99 -86 115 -101 17 -15 39 -36 51 -46 12 -10 54
-47 94 -83 39 -36 82 -74 95 -85 46 -41 158 -141 198 -177 23 -21 45 -38 49
-38 18 0 5 -29 -25 -56 -109 -98 -232 -207 -291 -259 -38 -33 -78 -69 -90 -80
-28 -25 -168 -150 -214 -190 -19 -16 -44 -39 -56 -50 -12 -11 -57 -51 -101
-90 -44 -38 -85 -74 -91 -80 -6 -5 -39 -35 -74 -65 -34 -30 -80 -72 -101 -92
-21 -21 -41 -38 -44 -38 -3 0 -30 -24 -60 -54 -57 -58 -72 -97 -62 -162 6 -38
21 -59 105 -149 31 -34 104 -112 162 -174 58 -63 127 -137 153 -165 27 -28 82
-88 123 -133 135 -147 202 -151 338 -19 34 33 127 122 206 196 79 74 169 160
201 190 50 48 206 196 360 341 224 211 333 315 396 377 41 39 76 72 78 72 2 0
30 26 62 58 33 31 124 118 204 193 79 76 188 178 241 229 107 102 124 133 113
208 -8 51 -30 75 -329 357 -82 77 -175 165 -207 195 -31 30 -119 114 -195 185
-75 72 -159 150 -185 175 -26 25 -107 101 -179 170 -73 69 -154 145 -180 170
-79 75 -218 207 -380 360 -84 80 -177 168 -207 196 -29 28 -55 49 -58 46 -3
-3 -5 0 -5 6 0 35 -108 53 -165 28z"/>
</g>
</svg>
