<?xml version="1.0" standalone="no"?>
<!DOCTYPE svg PUBLIC "-//W3C//DTD SVG 20010904//EN"
 "http://www.w3.org/TR/2001/REC-SVG-20010904/DTD/svg10.dtd">
<svg version="1.0" xmlns="http://www.w3.org/2000/svg"
 width="960.000000pt" height="960.000000pt" viewBox="0 0 960.000000 960.000000"
 preserveAspectRatio="xMidYMid meet">
<metadata>
Created by potrace 1.14, written by Peter Selinger 2001-2017
</metadata>
<g transform="translate(0.000000,960.000000) scale(0.100000,-0.100000)"
fill="#000000" stroke="none">
<path d="M5295 8625 c-73 -34 -92 -67 -140 -245 -2 -8 -11 -39 -20 -67 -8 -29
-22 -77 -30 -105 -9 -29 -17 -60 -19 -68 -2 -8 -30 -102 -61 -209 -31 -107
-59 -202 -61 -210 -2 -9 -13 -47 -24 -86 -12 -38 -23 -77 -25 -85 -2 -8 -4
-15 -5 -15 -1 0 -3 -7 -5 -15 -2 -8 -34 -118 -70 -245 -37 -126 -68 -234 -70
-240 -1 -5 -5 -17 -8 -25 -5 -12 -19 -62 -33 -115 -1 -5 -19 -66 -39 -135 -20
-69 -38 -132 -40 -140 -2 -8 -18 -62 -35 -120 -34 -115 -89 -306 -96 -330 -2
-8 -22 -78 -45 -155 -23 -77 -42 -144 -43 -150 -1 -5 -12 -41 -23 -80 -12 -38
-36 -119 -53 -180 -35 -119 -71 -245 -99 -340 -10 -33 -25 -85 -34 -115 -31
-108 -56 -196 -78 -270 -12 -41 -24 -79 -25 -85 -2 -5 -10 -35 -19 -65 -9 -30
-17 -59 -19 -65 -1 -5 -8 -30 -15 -55 -8 -25 -14 -49 -15 -55 -1 -5 -7 -26
-13 -45 -22 -69 -55 -181 -58 -198 -2 -9 -4 -17 -5 -17 -1 0 -3 -7 -5 -15 -11
-45 -78 -278 -85 -295 -7 -16 -77 -255 -84 -290 -2 -5 -11 -37 -21 -70 -11
-33 -19 -62 -20 -65 -10 -44 -19 -77 -23 -85 -4 -5 -7 -16 -8 -23 -2 -7 -13
-46 -25 -85 -12 -40 -23 -76 -24 -82 -2 -16 -15 -64 -51 -185 -56 -185 -73
-243 -80 -275 -4 -16 -9 -34 -13 -40 -3 -5 -6 -13 -7 -17 -1 -5 -2 -9 -4 -10
-1 -2 -3 -12 -5 -23 -2 -11 -11 -45 -20 -75 -9 -30 -18 -62 -20 -70 -2 -8 -4
-15 -5 -15 -1 0 -3 -7 -5 -15 -2 -8 -33 -118 -70 -244 -37 -126 -68 -236 -70
-245 -7 -29 -76 -266 -82 -281 -7 -17 -9 -25 -17 -55 -7 -26 -32 -112 -59
-200 -41 -136 -20 -244 53 -277 17 -7 30 -16 30 -20 0 -5 8 -8 17 -8 9 0 55
-12 102 -26 47 -14 94 -28 104 -30 10 -1 35 -8 55 -15 41 -13 60 -18 67 -19 3
0 21 -6 40 -14 19 -8 35 -13 35 -10 0 2 16 -2 35 -10 19 -8 35 -13 35 -11 0 3
12 0 28 -6 15 -6 50 -17 77 -24 53 -15 278 -80 334 -96 78 -24 176 16 210 85
17 34 57 157 65 199 1 7 13 46 25 87 12 41 34 116 48 165 14 50 32 110 40 135
8 25 16 52 18 61 2 9 13 49 25 89 12 40 23 80 26 89 2 9 13 48 24 86 12 39 23
77 25 85 2 8 4 15 5 15 1 0 3 7 5 15 3 13 210 735 219 765 2 6 4 12 4 15 0 3
6 19 12 35 7 17 13 37 15 45 4 22 36 133 42 150 3 8 7 22 9 30 1 8 19 69 39
135 20 66 38 127 40 135 2 8 4 15 5 15 1 0 3 7 5 15 1 8 22 80 45 160 23 80
43 150 44 155 3 14 46 157 53 175 4 8 7 22 8 30 3 29 18 75 28 88 5 6 7 12 4
12 -3 0 10 50 28 110 18 61 31 110 28 110 -3 0 -1 6 5 12 8 11 16 36 27 88 1
3 9 32 20 65 10 33 19 65 21 70 1 6 19 66 39 135 20 69 38 132 40 140 1 8 5
22 8 30 15 45 50 158 54 180 2 13 13 52 23 85 33 108 62 205 65 223 2 9 4 18
5 20 2 1 4 7 5 12 1 6 4 12 5 15 1 3 3 8 4 13 3 14 68 247 74 262 3 8 6 20 8
25 17 58 60 204 75 260 11 39 24 84 29 100 47 162 59 204 69 228 6 15 8 27 5
27 -4 0 -1 7 6 15 7 8 10 15 7 15 -3 0 1 21 9 48 25 81 166 566 169 582 2 8 4
16 5 18 2 1 3 5 4 10 1 4 5 13 9 20 5 6 6 12 4 12 -3 0 15 66 39 148 25 81 47
158 50 171 3 14 7 28 10 33 3 4 7 16 9 25 2 10 35 128 75 263 39 135 73 252
75 260 2 8 11 40 20 70 9 30 26 87 37 125 28 96 32 134 19 183 -19 69 -66 105
-179 137 -135 39 -164 47 -362 105 -96 28 -182 53 -190 55 -8 2 -27 8 -42 14
-16 6 -28 8 -28 5 0 -4 -7 0 -17 7 -9 8 -18 13 -20 11 -4 -4 -65 8 -78 16 -5
4 -14 7 -20 8 -5 1 -37 9 -70 18 -72 19 -110 20 -150 1z"/>
<path d="M2295 6998 c-43 -9 -54 -18 -250 -203 -71 -68 -146 -137 -165 -155
-37 -34 -265 -247 -310 -290 -33 -31 -271 -255 -325 -305 -22 -20 -91 -85
-154 -144 -63 -58 -140 -132 -173 -163 -32 -32 -60 -58 -62 -58 -2 0 -30 -26
-63 -57 -32 -32 -108 -103 -167 -158 -59 -55 -133 -125 -165 -155 -32 -30
-102 -95 -155 -145 -179 -166 -283 -270 -291 -290 -14 -39 -16 -83 -5 -126 13
-46 33 -67 260 -279 68 -63 140 -131 161 -150 59 -55 296 -278 374 -352 38
-36 84 -79 100 -93 26 -24 141 -132 325 -305 71 -67 278 -261 314 -295 18 -16
83 -77 146 -135 62 -58 141 -132 175 -165 34 -33 115 -109 181 -170 65 -60
134 -125 153 -144 97 -93 211 -88 297 13 26 30 214 230 334 357 79 82 262 278
287 307 13 15 31 40 40 56 18 35 21 138 4 144 -6 2 -11 10 -11 18 0 15 -31 46
-125 127 -33 29 -78 68 -100 88 -22 20 -55 49 -74 65 -19 16 -51 45 -72 64
-21 19 -61 55 -90 80 -29 25 -57 50 -63 55 -6 6 -47 41 -91 80 -94 82 -138
121 -176 155 -15 14 -49 44 -76 66 -63 55 -80 70 -164 145 -39 35 -80 71 -91
79 -11 8 -34 29 -51 45 -18 17 -63 57 -102 90 -38 33 -81 71 -94 83 l-24 24
29 25 c16 13 56 49 89 78 33 30 70 63 83 73 12 11 53 47 90 80 58 51 225 198
258 227 15 13 130 113 160 140 12 11 51 45 85 75 35 30 75 66 90 80 15 14 46
41 69 60 23 19 57 49 75 65 17 17 58 53 90 80 32 28 80 70 108 95 67 60 88 79
112 99 23 18 69 80 72 97 1 6 4 24 7 39 9 50 -21 112 -92 187 -97 102 -125
132 -242 258 -58 62 -121 129 -140 149 -19 21 -80 86 -135 145 -55 59 -114
115 -131 126 -37 23 -85 30 -139 18z"/>
<path d="M7185 6991 c-24 -11 -79 -60 -138 -123 -53 -58 -112 -121 -130 -140
-17 -18 -70 -75 -117 -125 -47 -50 -133 -142 -191 -204 -160 -171 -168 -180
-176 -213 -11 -48 -4 -107 20 -148 11 -21 23 -38 26 -38 3 0 25 -17 47 -37 38
-35 137 -122 188 -166 12 -10 35 -31 51 -45 17 -15 69 -61 115 -102 47 -41 92
-81 101 -90 8 -8 37 -33 63 -55 27 -22 60 -51 75 -65 15 -14 58 -52 96 -85 38
-33 73 -64 79 -70 6 -5 45 -39 86 -75 41 -35 82 -71 91 -80 8 -8 39 -35 68
-60 29 -25 68 -58 86 -75 17 -16 61 -55 96 -85 34 -30 77 -68 93 -83 l31 -28
-31 -27 c-18 -15 -42 -36 -55 -47 -31 -27 -201 -177 -215 -190 -6 -5 -32 -28
-58 -50 -26 -21 -67 -57 -90 -80 -24 -22 -66 -59 -92 -81 -74 -63 -96 -82
-134 -117 -19 -18 -66 -59 -105 -92 -38 -33 -76 -67 -85 -75 -9 -8 -42 -37
-74 -65 -31 -27 -72 -63 -90 -80 -18 -16 -56 -50 -86 -75 -29 -25 -68 -58 -85
-75 -17 -16 -55 -50 -84 -75 -88 -75 -98 -86 -114 -116 -40 -78 -22 -159 51
-234 26 -26 88 -91 137 -145 50 -53 113 -121 140 -149 28 -29 102 -108 165
-176 189 -203 227 -240 249 -240 11 0 23 -4 26 -10 7 -11 79 -6 115 9 14 5 43
26 65 46 38 35 183 170 299 280 74 69 303 284 336 315 191 179 289 271 320
300 21 19 88 82 150 140 62 58 131 123 154 145 24 22 98 92 166 155 68 63 142
133 165 155 23 22 100 94 171 160 70 66 147 139 171 162 24 23 43 41 43 40 0
-10 201 194 211 213 20 41 22 99 5 145 -12 30 -44 67 -114 132 -53 50 -118
110 -143 134 -25 24 -99 94 -164 154 -65 61 -141 133 -170 160 -29 28 -83 79
-121 114 -38 35 -127 118 -198 185 -71 66 -146 137 -166 156 -21 19 -95 89
-166 156 -71 67 -151 142 -179 168 -27 25 -53 46 -58 46 -4 0 -5 5 -2 10 3 6
2 10 -3 10 -5 0 -31 21 -59 48 -28 26 -84 79 -125 117 -159 150 -333 312 -382
358 -28 27 -76 72 -106 101 -30 28 -68 60 -83 70 -42 26 -114 29 -162 7z"/>
</g>
</svg>
